<?xml version="1.0" standalone="no"?>
<!DOCTYPE svg PUBLIC "-//W3C//DTD SVG 20010904//EN"
 "http://www.w3.org/TR/2001/REC-SVG-20010904/DTD/svg10.dtd">
<svg version="1.0" xmlns="http://www.w3.org/2000/svg"
 width="1159.000000pt" height="1296.000000pt" viewBox="0 0 1159.000000 1296.000000"
 preserveAspectRatio="xMidYMid meet">

<g transform="translate(0.000000,1296.000000) scale(0.100000,-0.100000)"
fill="#ffffff" stroke="none">
<path d="M2195 11072 l-2170 -1887 1432 -5 1432 -5 4 -250 c3 -162 11 -287 21
-355 85 -538 304 -962 693 -1341 408 -399 895 -626 1488 -694 166 -19 470 -19
650 0 77 8 145 15 152 15 6 0 -3 -33 -23 -81 -41 -98 -89 -274 -103 -382 -48
-352 78 -729 376 -1130 36 -48 64 -89 62 -91 -2 -1 -143 -15 -314 -30 -1198
-105 -2081 -346 -2655 -723 -185 -122 -306 -219 -445 -358 -381 -381 -593
-779 -661 -1245 -25 -173 -15 -489 21 -660 63 -302 184 -551 392 -807 225
-279 611 -535 1083 -720 558 -220 1089 -313 1771 -313 571 -1 1061 73 1611
240 522 158 1078 434 1404 696 303 244 565 567 733 903 264 525 329 1192 171
1756 -106 377 -359 800 -641 1070 -124 119 -359 318 -547 463 -414 319 -539
427 -684 587 -106 117 -156 189 -204 288 -98 208 -81 431 52 657 85 145 279
358 514 565 177 156 454 428 544 535 218 259 408 654 475 986 88 432 61 979
-65 1351 -42 124 -107 267 -158 346 -21 32 -35 64 -33 71 4 10 1792 1483 1905
1569 9 7 12 -51 12 -287 l0 -296 -27 0 c-40 0 -126 -43 -151 -74 -11 -15 -26
-51 -32 -79 -8 -38 -10 -685 -8 -2337 l3 -2285 27 -57 c35 -76 99 -143 173
-181 l60 -32 160 0 160 0 67 33 c81 40 148 110 180 190 l23 57 0 2310 0 2310
-21 40 c-25 48 -95 94 -153 102 l-41 6 0 466 0 467 325 253 c179 140 325 255
325 257 0 2 -1619 4 -3597 4 l-3598 -1 -2170 -1887z m3742 304 c144 -36 242
-76 363 -148 130 -77 226 -156 350 -284 472 -488 764 -1138 871 -1939 26 -194
36 -562 20 -705 -21 -184 -76 -397 -140 -544 -66 -150 -225 -374 -336 -472
-226 -200 -459 -295 -799 -325 -343 -31 -692 66 -961 268 -234 174 -501 496
-679 820 -179 324 -317 770 -377 1216 -26 196 -36 561 -20 718 34 327 135 616
303 869 77 116 225 271 323 339 96 67 238 134 350 166 149 43 251 55 450 50
152 -3 196 -7 282 -29z m710 -6946 c96 -11 73 3 413 -245 507 -370 675 -512
859 -728 254 -298 298 -368 380 -612 68 -206 82 -275 88 -456 20 -572 -192
-1010 -631 -1300 -585 -388 -1407 -524 -2275 -378 -569 95 -1154 340 -1458
610 -279 248 -455 546 -530 895 -25 120 -27 146 -27 359 0 252 12 341 74 527
102 305 353 618 650 811 251 162 679 327 1075 412 249 54 447 81 790 108 96 8
517 6 592 -3z"/>
</g>
</svg>
